<svg width="639" height="93" viewBox="0 0 639 93" fill="none" xmlns="http://www.w3.org/2000/svg">
<g style="mix-blend-mode:multiply">
<path fill-rule="evenodd" clip-rule="evenodd" d="M0.5625 91.5057V64.3615H1.59994C10.162 77.5149 17.2365 87.8888 30.5858 87.8888C40.4352 87.8888 45.4974 81.8529 45.4974 74.3748C45.4974 66.4084 42.3851 63.3962 32.2732 57.8488L18.399 50.1265C6.47467 43.4858 0.5 35.7752 0.5 25.3897C0.5 10.0732 13.2243 1.83921 32.3982 0.420362C48.2223 -0.998485 61.4465 1.62988 61.4465 1.62988V24.9129H60.534C50.8096 11.2827 44.585 5.00254 34.0856 5.00254C26.1735 5.00254 20.5988 8.74736 20.5988 15.8649C20.5988 23.8313 27.4734 27.925 34.2106 31.6699L47.6973 39.0316C61.434 46.5096 68.0586 53.6271 68.0586 65.4547C68.0586 80.8992 54.3969 92.1104 32.1482 92.8431C9.89947 93.5758 0.5625 91.5057 0.5625 91.5057ZM79.4838 82.3654V10.7601L75.8465 1.6307H144.705V21.2968H143.543L130.443 7.50379H104.257V41.7073H121.894L130.706 32.1592H131.618V57.2565H130.706L121.894 47.5804H104.257V85.645H131.743L145.355 68.9561H146.517V91.5181H75.8465L79.4838 82.3654ZM238.787 20.5749V82.3297L235.113 91.5057H267.323L263.686 82.3995V10.8058L267.323 1.64147H238.45L212.126 76.2007L185.678 1.64147H160.154L163.329 10.7012V82.4227L159.692 91.5173H173.129L169.366 82.3413V27.7041L191.765 90.9126H213.889L238.787 20.5749ZM289.66 91.5065H275.224L278.961 82.3305L305.872 14.4236L300.56 1.6307H325.721L358.894 82.3305L362.556 91.5065H329.858L333.558 82.3305L326.321 64.688H293.485L286.048 82.3305L289.66 91.5065ZM323.896 58.5707L309.347 23.146L295.435 58.5707H323.896ZM542.87 41.4139C539.42 14.4558 515.109 -2.17495 488.71 0.744156C461.412 3.76793 442.788 23.562 446.425 52.0785C449.85 78.9087 472.999 95.5511 500.422 92.5157C528.62 89.3988 546.494 69.8025 542.87 41.4139ZM500.034 88.4219C485.998 89.9803 476.398 76.0943 473.049 49.8572C468.974 17.9913 475.098 6.62889 489.398 5.03559C503.684 3.45392 512.509 13.1765 516.571 45.0424C519.908 71.2795 514.071 86.8751 500.034 88.4219ZM638.5 91.5057H611.414L586.003 48.8007H579.003V82.3297L582.891 91.5057H550.393L554.105 82.3297V10.7826L550.393 1.64147H588.99C613.239 1.64147 630.875 6.10736 630.875 24.0755C630.875 34.1587 625.463 43.0206 611.452 46.9748C604.377 48.9635 599.54 48.8123 599.54 48.8123L615.014 52.9642L638.5 91.5057ZM579.003 43.0555H586.778C601.815 43.0555 605.702 38.0663 605.702 27.204C605.702 12.7248 597.665 7.49131 586.778 7.49131H579.003V43.0555ZM372.642 91.5065H404.815L401.053 82.3305V47.5804H418.689L427.501 57.2565H428.414V32.1592H427.501L418.689 41.7073H401.053V7.50379H427.239L440.338 21.2968H441.5V1.6307H372.642L376.279 10.7601V82.3654L372.642 91.5065Z" fill="black"/>
</g>
</svg>
