<svg width="744" height="119" viewBox="0 0 744 119" fill="none" xmlns="http://www.w3.org/2000/svg">
<path d="M76.0277 119C43.0371 119 16.2922 92.3639 16.2922 59.5076C16.2922 26.659 43.0218 0.0305285 75.997 0.0152642H59.7661C59.7585 0.0152642 59.7432 0.0152642 59.7355 0.0152642C26.7449 0.0152642 0 26.6514 0 59.5076C0 92.3639 26.7449 119 59.7355 119H76.0277Z" fill="#070705"/>
<path d="M667.972 119C700.963 119 727.708 92.3639 727.708 59.5076C727.708 26.659 700.978 0.0305285 668.003 0.0152642H684.234C684.242 0.0152642 684.257 0.0152642 684.265 0.0152642C717.255 0.0152642 744 26.6514 744 59.5076C744 92.3639 717.255 119 684.265 119H667.972Z" fill="#070705"/>
<path d="M184.64 73.0165C184.64 93.9285 167.62 110.879 146.622 110.879C125.625 110.879 108.604 93.9285 108.604 73.0165V0.00763211H92.3122V73.0241C92.3122 87.0672 98.6421 99.6297 108.604 108.063C116.659 114.879 127.081 119 138.476 119C163.972 118.992 184.64 98.4085 184.64 73.0165Z" fill="#070705"/>
<path d="M472.466 73.0165C472.466 93.9285 455.446 110.879 434.448 110.879C413.451 110.879 396.431 93.9285 396.431 73.0165V0.00763211H380.138V73.0241C380.138 87.0672 386.468 99.6297 396.431 108.063C404.485 114.879 414.907 119 426.302 119C451.798 118.992 472.466 98.4085 472.466 73.0165Z" fill="#070705"/>
<path d="M222.657 0.00763211H206.365V119H222.657V0.00763211Z" fill="#070705"/>
<path d="M260.667 118.992H282.393V97.3858C282.378 109.322 272.661 118.992 260.667 118.992Z" fill="#070705"/>
<path d="M293.252 0.0305285H271.526V21.6371C271.549 9.70042 281.266 0.0305285 293.252 0.0305285Z" fill="#070705"/>
<path d="M342.128 0.0305285H363.854V21.6371C363.839 9.70042 354.122 0.0305285 342.128 0.0305285Z" fill="#070705"/>
<path d="M325.836 0H309.544V118.992H325.836V0Z" fill="#070705"/>
<path d="M635.388 0.0305285H657.113V21.6371C657.09 9.70042 647.373 0.0305285 635.388 0.0305285Z" fill="#070705"/>
<path d="M635.388 118.962H657.113V97.3553C657.09 109.292 647.373 118.962 635.388 118.962Z" fill="#070705"/>
<path d="M624.529 59.4695H646.255V37.8629C646.232 49.7996 636.514 59.4695 624.529 59.4695Z" fill="#070705"/>
<path d="M624.529 59.5305H646.255V81.137C646.232 69.2004 636.514 59.5305 624.529 59.5305Z" fill="#070705"/>
<path d="M613.662 0H597.37V118.992H613.662V0Z" fill="#070705"/>
<path d="M507.763 0H491.471V118.992H507.763V0Z" fill="#070705"/>
<path d="M534.922 0H518.63C536.623 0 551.214 14.5316 551.214 32.4518C551.214 50.372 536.623 64.9035 518.63 64.9035H534.922C552.915 64.9035 567.506 50.372 567.506 32.4518C567.506 14.5316 552.915 0 534.922 0Z" fill="#070705"/>
<path d="M561.215 97.3553C558.502 78.4277 546.624 64.9035 528.63 64.9035H512.338C530.332 64.9035 542.21 81.1294 544.923 97.3553C547.635 113.581 556.801 118.534 566.288 118.962C566.694 118.977 567.093 118.992 567.499 118.992H583.791C574.143 118.992 563.935 116.291 561.215 97.3553Z" fill="#070705"/>
<path fill-rule="evenodd" clip-rule="evenodd" d="M309.536 0.00757623C309.562 0.00260218 309.59 0 309.618 0H325.891C325.919 0 325.946 0.00260218 325.973 0.00757623H363.864C364.107 0.00757623 364.304 0.202616 364.304 0.44321C364.304 0.44701 364.304 0.450798 364.304 0.454574C364.304 0.458351 364.304 0.462139 364.304 0.465939V21.9137C364.304 22.1542 364.107 22.3498 363.864 22.3499C363.621 22.3501 363.424 22.1553 363.423 21.9148C363.408 10.3059 353.9 0.901573 342.164 0.901573C342.115 0.901573 342.067 0.893583 342.023 0.878844H326.331V118.557C326.331 118.797 326.134 118.992 325.891 118.992H309.618C309.375 118.992 309.178 118.797 309.178 118.557V0.878844H293.486C293.442 0.893583 293.394 0.901573 293.345 0.901573C281.617 0.901573 272.108 10.3059 272.085 21.9151C272.085 22.1555 271.888 22.3501 271.645 22.3499C271.402 22.3497 271.205 22.1547 271.205 21.9143V0.465939C271.205 0.413498 271.214 0.36322 271.232 0.316655C271.286 0.137782 271.454 0.00757623 271.653 0.00757623H309.536ZM272.085 0.901573V15.8146C274.194 8.64289 279.903 2.98956 287.145 0.901573H272.085ZM310.058 0.878844V118.121H325.451V0.878844H310.058ZM363.423 0.901573H348.367C355.609 2.98844 361.315 8.63687 363.423 15.8033V0.901573ZM491.247 0.00757623C491.274 0.00260218 491.302 0 491.33 0H507.603C507.631 0 507.658 0.00260218 507.685 0.00757623H518.374C518.401 0.00260218 518.428 0 518.456 0H534.729C552.944 0 567.715 14.6202 567.715 32.6498C567.715 50.2488 553.642 64.5992 536.028 65.2747C550.005 68.5264 559.095 80.8473 561.427 97.0166C562.775 106.344 565.965 111.589 569.934 114.517C573.912 117.452 578.753 118.121 583.54 118.121C583.783 118.121 583.98 118.316 583.98 118.557C583.98 118.797 583.783 118.992 583.54 118.992H567.267C566.86 118.992 566.462 118.978 566.066 118.963L566.041 118.962L566.038 118.962C561.231 118.746 556.468 117.389 552.561 114.011C548.653 110.633 545.651 105.275 544.284 97.1497C541.592 81.1481 529.837 65.2996 512.172 65.2996C511.929 65.2996 511.732 65.1046 511.732 64.864C511.732 64.6234 511.929 64.4283 512.172 64.4283H518.456C536.185 64.4283 550.562 50.1982 550.562 32.6498C550.562 15.3356 536.566 1.25165 519.164 0.878844H508.043V118.557C508.043 118.797 507.846 118.992 507.603 118.992H491.33C491.087 118.992 490.889 118.797 490.889 118.557V0.878844H485.91C485.667 0.878844 485.47 0.683804 485.47 0.44321C485.47 0.202616 485.667 0.00757623 485.91 0.00757623H491.247ZM491.77 0.878844V118.121H507.162V0.878844H491.77ZM526.089 0.878844C540.625 4.28847 551.442 17.2207 551.442 32.6498C551.442 48.0903 540.609 61.0303 526.057 64.4283H534.729C552.458 64.4283 566.835 50.1982 566.835 32.6498C566.835 15.1283 552.502 0.914938 534.811 0.871368C534.784 0.876276 534.757 0.878844 534.729 0.878844H526.089ZM519.292 65.2996H528.445C546.132 65.2996 557.866 78.4936 560.555 97.1397C561.924 106.609 565.19 112.103 569.408 115.215C571.336 116.639 573.448 117.551 575.636 118.121H567.267C566.877 118.121 566.493 118.107 566.092 118.092L566.078 118.091C566.078 118.091 566.078 118.091 566.078 118.091C561.41 117.882 556.857 116.569 553.14 113.355C549.424 110.142 546.495 104.989 545.152 97.0066C542.797 83.0051 533.545 68.8894 519.292 65.2996ZM597.021 0.00757623C597.048 0.00260218 597.076 0 597.104 0H613.376C613.405 0 613.432 0.00260218 613.459 0.00757623H656.768C656.967 0.00757623 657.135 0.137782 657.19 0.316655C657.207 0.36322 657.216 0.413498 657.216 0.465939V21.9143C657.216 22.1547 657.019 22.3497 656.776 22.3499C656.534 22.3501 656.336 22.1555 656.336 21.9151C656.313 10.3059 646.805 0.901573 635.076 0.901573C635.027 0.901573 634.98 0.893583 634.936 0.878844H613.817V59.0644H624.069C624.119 59.0448 624.173 59.0341 624.23 59.0341C635.958 59.0341 645.467 49.6298 645.49 38.0205C645.49 37.7801 645.688 37.5855 645.93 37.5857C646.173 37.586 646.37 37.7809 646.37 38.0214V59.4697C646.37 59.4799 646.37 59.4899 646.369 59.4999C646.37 59.51 646.37 59.5201 646.37 59.5303V80.9786C646.37 81.2191 646.173 81.414 645.93 81.4143C645.688 81.4145 645.49 81.2199 645.49 80.9795C645.467 69.3702 635.958 59.9659 624.23 59.9659C624.173 59.9659 624.119 59.9552 624.069 59.9356H613.817V118.121H634.915C634.965 118.102 635.019 118.091 635.076 118.091C646.805 118.091 656.313 108.687 656.336 97.0773C656.336 96.8369 656.534 96.6423 656.776 96.6425C657.019 96.6427 657.216 96.8377 657.216 97.0782V118.526C657.216 118.569 657.21 118.609 657.199 118.648C657.157 118.845 656.98 118.992 656.768 118.992H591.684C591.441 118.992 591.244 118.797 591.244 118.557C591.244 118.316 591.441 118.121 591.684 118.121H596.663V0.878844H591.684C591.441 0.878844 591.244 0.683804 591.244 0.44321C591.244 0.202616 591.441 0.00757623 591.684 0.00757623H597.021ZM597.544 0.878844V118.121H612.936V59.9356H607.95C607.707 59.9356 607.51 59.7406 607.51 59.5C607.51 59.2594 607.707 59.0644 607.95 59.0644H612.936V0.878844H597.544ZM656.336 118.091V103.178C654.227 110.35 648.519 116.003 641.276 118.091H656.336ZM645.49 59.9659H630.43C637.673 62.0539 643.381 67.7073 645.49 74.879V59.9659ZM645.49 59.0341V44.121C643.381 51.2927 637.673 56.9461 630.43 59.0341H645.49ZM656.336 0.901573H641.276C648.519 2.98956 654.227 8.64291 656.336 15.8146V0.901573ZM86.7838 0.44321C86.7838 0.202616 86.9808 0.00757623 87.2239 0.00757623H114.343C114.586 0.00757623 114.783 0.202616 114.783 0.44321C114.783 0.683804 114.586 0.878844 114.343 0.878844H109.356V72.9175C109.356 93.4358 126.159 110.068 146.889 110.068C167.618 110.068 184.421 93.4358 184.421 72.9175V0.878844H179.435C179.191 0.878844 178.994 0.683804 178.994 0.44321C178.994 0.202616 179.191 0.00757623 179.435 0.00757623H190.288C190.531 0.00757623 190.728 0.202616 190.728 0.44321C190.728 0.683804 190.531 0.878844 190.288 0.878844H185.302V75.6071H185.224C183.817 99.8021 163.549 118.993 138.752 119C127.262 119 116.752 114.869 108.631 108.04C98.5866 99.5888 92.203 86.9988 92.203 72.9251V0.878844H87.2239C86.9808 0.878844 86.7838 0.683804 86.7838 0.44321ZM93.0832 0.878844V72.9251C93.0832 86.7319 99.3445 99.083 109.201 107.376C117.169 114.077 127.479 118.129 138.752 118.129C157.237 118.123 173.157 107.251 180.343 91.6162C173.748 103.153 161.237 110.939 146.889 110.939C125.673 110.939 108.476 93.917 108.476 72.9175V0.878844H93.0832ZM200.694 0.44321C200.694 0.202616 200.891 0.00757623 201.134 0.00757623H228.253C228.496 0.00757623 228.693 0.202616 228.693 0.44321C228.693 0.683804 228.496 0.878844 228.253 0.878844H223.274V118.121H260.799C272.535 118.121 282.044 108.717 282.059 97.1079C282.059 96.8674 282.256 96.6727 282.499 96.6728C282.742 96.673 282.939 96.868 282.939 97.1085V118.557C282.939 118.797 282.742 118.992 282.499 118.992H222.916C222.89 118.997 222.862 119 222.834 119H206.561C206.533 119 206.506 118.997 206.479 118.992H201.134C200.891 118.992 200.694 118.797 200.694 118.557C200.694 118.316 200.891 118.121 201.134 118.121H206.121V0.878844H201.134C200.891 0.878844 200.694 0.683804 200.694 0.44321ZM207.001 0.878844V118.121H222.394V0.878844H207.001ZM267.003 118.121H282.059V103.219C279.951 110.386 274.244 116.034 267.003 118.121ZM374.269 0.44321C374.269 0.202616 374.467 0.00757623 374.71 0.00757623H401.829C402.072 0.00757623 402.269 0.202616 402.269 0.44321C402.269 0.683804 402.072 0.878844 401.829 0.878844H396.842V72.9175C396.842 93.4358 413.645 110.068 434.374 110.068C455.104 110.068 471.907 93.4358 471.907 72.9175V0.878844H466.92C466.677 0.878844 466.48 0.683804 466.48 0.44321C466.48 0.202616 466.677 0.00757623 466.92 0.00757623H477.774C478.017 0.00757623 478.214 0.202616 478.214 0.44321C478.214 0.683804 478.017 0.878844 477.774 0.878844H472.787V75.6071H472.709C471.302 99.8021 451.035 118.993 426.238 119C414.747 119 404.238 114.869 396.117 108.04C386.072 99.5887 379.689 86.9988 379.689 72.9251V0.878844H374.71C374.467 0.878844 374.269 0.683804 374.269 0.44321ZM380.569 0.878844V72.9251C380.569 86.7319 386.83 99.083 396.687 107.376C404.655 114.077 414.965 118.129 426.238 118.129C444.723 118.123 460.643 107.252 467.829 91.6164C461.233 103.153 448.723 110.939 434.374 110.939C413.159 110.939 395.962 93.917 395.962 72.9175V0.878844H380.569ZM0 59.5076C0 26.6513 26.9103 0.0151525 60.1049 0.0151525L76.347 0.0151525C76.5901 0.0151525 76.7873 0.210131 76.7873 0.450685C76.7874 0.691239 76.5905 0.886308 76.3474 0.88642C76.3474 0.88642 76.3475 0.88642 76.3474 0.88642C43.6543 0.90157 17.1532 27.14 17.1532 59.5076C17.1532 91.8827 43.6694 118.129 76.3779 118.129C76.6209 118.129 76.818 118.324 76.818 118.564C76.818 118.805 76.6209 119 76.3779 119H60.1049C26.9103 119 0 92.3639 0 59.5076ZM66.0716 118.129C37.7874 113.291 16.2729 88.8857 16.2729 59.5076C16.2729 30.128 37.7872 5.72414 66.0696 0.88642H60.1053C27.3969 0.88642 0.880238 27.1325 0.880238 59.5076C0.880238 91.8827 27.3965 118.129 60.1049 118.129H66.0716ZM667.213 0.450685C667.213 0.210131 667.41 0.0151525 667.653 0.0151525H683.894C717.089 0.0151525 744 26.6513 744 59.5076C744 92.3639 717.09 119 683.895 119H667.622C667.379 119 667.182 118.805 667.182 118.564C667.182 118.324 667.379 118.129 667.622 118.129C700.331 118.129 726.847 91.8827 726.847 59.5076C726.847 27.14 700.346 0.901461 667.653 0.88642C667.41 0.886308 667.213 0.691239 667.213 0.450685ZM677.93 0.88642C706.213 5.72414 727.727 30.128 727.727 59.5076C727.727 88.8857 706.213 113.291 677.928 118.129H683.895C716.603 118.129 743.12 91.8827 743.12 59.5076C743.12 27.1325 716.603 0.88642 683.895 0.88642H677.93Z" fill="#070705"/>
</svg>
